<svg width="145" height="20" fill="none" xmlns="http://www.w3.org/2000/svg"><path d="M8.3.6h3.3l2.08 6.1L15.76.6h3.32l-3.14 8.39 2.34 5.9L23.5.54h3.9L19.9 19h-3.02l-3.2-7.75-3.2 7.75h-3L0 .54h3.85L9.1 14.89 11.39 9 8.29.59Zm26.08 18.66a6.96 6.96 0 0 1-6.68-4.32 7.49 7.49 0 0 1 0-5.4 6.76 6.76 0 0 1 3.7-3.82c.9-.39 1.9-.58 3-.58 1.11 0 2.1.2 2.97.57A6.67 6.67 0 0 1 41 9.48a7.27 7.27 0 0 1 .42 3.83H30.9c.05.53.18 1.01.39 1.43a3.53 3.53 0 0 0 3.22 1.97c.7 0 1.34-.16 1.95-.5.62-.34 1.05-.79 1.27-1.34l3 .83a6.14 6.14 0 0 1-2.42 2.57c-1.1.66-2.4.99-3.93.99Zm3.54-8.22a3.55 3.55 0 0 0-6.74-1.37c-.19.41-.3.87-.34 1.37h7.08Zm14.23 8.22a5.48 5.48 0 0 1-2.78-.7 5.13 5.13 0 0 1-1.92-1.93V19H44.4V.02h3.48v7.75a5.19 5.19 0 0 1 4.68-2.63c.88 0 1.69.2 2.42.57a6.62 6.62 0 0 1 3.1 3.8 8.42 8.42 0 0 1-.06 5.49 6.38 6.38 0 0 1-3.35 3.72c-.78.36-1.62.54-2.53.54Zm-.96-2.96c.56 0 1.07-.1 1.54-.32a3.84 3.84 0 0 0 1.95-2.15 4.83 4.83 0 0 0 .03-3.15 4 4 0 0 0-1.88-2.24 3.2 3.2 0 0 0-3.54.44c-.6.5-1.07 1.13-1.4 1.88V14c.12.34.3.66.52.93.24.28.51.52.8.73a3.52 3.52 0 0 0 1.98.62Z" fill="#2196F3"/><path d="M73 5.38a6.64 6.64 0 0 0-1.85-1.1c-.45-.2-.94-.38-1.48-.52a6.53 6.53 0 0 0-1.64-.2c-.98 0-1.72.18-2.2.54a1.8 1.8 0 0 0-.73 1.54c0 .38.08.7.26.96.19.24.46.46.8.65.35.19.78.36 1.3.52l1.85.5c.9.23 1.71.5 2.44.77.75.28 1.37.63 1.87 1.04.52.42.92.92 1.2 1.51.28.57.42 1.28.42 2.13 0 .99-.2 1.84-.58 2.55-.36.7-.86 1.26-1.5 1.69a6.6 6.6 0 0 1-2.19.96c-.81.2-1.67.29-2.57.29a13.9 13.9 0 0 1-7.75-2.4l1.59-3.09c.15.16.43.37.83.63a12.1 12.1 0 0 0 3.3 1.38c.68.17 1.37.25 2.08.25 1.98 0 2.96-.63 2.96-1.9 0-.4-.1-.73-.33-1a2.87 2.87 0 0 0-.97-.74 9.2 9.2 0 0 0-1.5-.57l-1.98-.57c-.88-.24-1.66-.5-2.31-.78a6.58 6.58 0 0 1-1.62-1.01c-.43-.4-.76-.85-.98-1.36a4.96 4.96 0 0 1-.32-1.84c0-.94.18-1.77.52-2.5a5.1 5.1 0 0 1 1.43-1.82A6.5 6.5 0 0 1 65.51.8a10 10 0 0 1 6.21.23c1.1.4 2.05.88 2.87 1.43L73 5.38ZM86.4 18.3c-.47.2-1.04.41-1.71.62a7.2 7.2 0 0 1-2.14.31c-.48 0-.94-.06-1.37-.18a3.26 3.26 0 0 1-1.12-.57 3.1 3.1 0 0 1-.76-1.04c-.19-.43-.28-.95-.28-1.56V8.05h-1.8V5.38h1.8V.96h3.48v4.42h2.86v2.67H82.5v6.66c0 .49.12.83.37 1.04.26.2.57.29.93.29.37 0 .72-.06 1.07-.19l.83-.3.7 2.75Zm6.76.96c-1.4 0-2.47-.45-3.2-1.35-.73-.9-1.1-2.24-1.1-4V5.37h3.49v7.77c0 2.1.75 3.15 2.26 3.15.68 0 1.33-.2 1.95-.6a4.45 4.45 0 0 0 1.56-1.87V5.38h3.49V15c0 .36.06.62.18.78.14.15.35.24.65.26V19a7.3 7.3 0 0 1-1.51.16c-.62 0-1.14-.14-1.53-.42-.39-.3-.61-.7-.68-1.2l-.08-1.09a5.8 5.8 0 0 1-2.34 2.1c-.95.48-2 .71-3.14.71Zm18.33 0a6.18 6.18 0 0 1-4.65-2.05 7.27 7.27 0 0 1-1.82-5.02 7.45 7.45 0 0 1 1.72-5 5.5 5.5 0 0 1 8.97.57V.03h3.48V15c0 .36.06.62.18.78.12.15.33.24.62.26V19c-.6.12-1.1.18-1.48.18-.62 0-1.14-.15-1.53-.47-.4-.3-.63-.72-.68-1.22l-.08-.86a5 5 0 0 1-2.05 1.98c-.85.43-1.74.65-2.68.65Zm.91-2.96c.33 0 .67-.06 1.01-.16a3.88 3.88 0 0 0 2.3-2.13v-3.25a3.47 3.47 0 0 0-.6-1.04c-.25-.33-.53-.6-.86-.83a3.91 3.91 0 0 0-1.02-.58c-.34-.13-.7-.2-1.04-.2a3.21 3.21 0 0 0-2.57 1.27 4.76 4.76 0 0 0-.7 4.47c.19.49.45.91.78 1.28a3.58 3.58 0 0 0 2.7 1.17Zm10.99 2.7V5.38h3.48V19h-3.48Zm0-15.52V.02h3.48v3.46h-3.48Zm13.7 15.78c-1.12 0-2.11-.2-3-.57a6.96 6.96 0 0 1-2.26-1.54 7.33 7.33 0 0 1-1.9-4.94c0-.95.17-1.85.5-2.7a6.78 6.78 0 0 1 6.66-4.37c1.1 0 2.1.2 2.96.57.88.39 1.63.9 2.23 1.56a6.6 6.6 0 0 1 1.44 2.24 7.42 7.42 0 0 1-1.4 7.64 6.67 6.67 0 0 1-2.25 1.54c-.88.38-1.88.57-2.98.57Zm-3.57-7.05c0 .61.09 1.17.26 1.67a3.66 3.66 0 0 0 1.9 2.13c.43.2.9.29 1.4.29.5 0 .97-.1 1.4-.29a3.73 3.73 0 0 0 1.87-2.16c.2-.5.3-1.06.3-1.66a4.6 4.6 0 0 0-1.04-2.94 3.1 3.1 0 0 0-1.12-.83 3.2 3.2 0 0 0-1.4-.31c-.5 0-.98.1-1.4.3a3.66 3.66 0 0 0-1.9 2.17c-.18.5-.27 1.04-.27 1.63Z" fill="#000"/></svg>